<svg version="1.2" xmlns="http://www.w3.org/2000/svg" viewBox="0 0 2800 1532" width="2800" height="1532">
	<title>vecteezy_flat-human-playing-with-dog-animal-friend-vector-illustration_231020-svg</title>
	<defs>
		<linearGradient id="g1" x2="1" gradientUnits="userSpaceOnUse" gradientTransform="matrix(0,-512.15,405.644,0,590.257,1253.65)">
			<stop offset="0" stop-color="#ff9842"/>
			<stop offset="1" stop-color="#ffd342"/>
		</linearGradient>
		<linearGradient id="g2" x2="1" gradientUnits="userSpaceOnUse" gradientTransform="matrix(0,-442.371,350.173,0,2272.536,1283.264)">
			<stop offset="0" stop-color="#ff9842"/>
			<stop offset="1" stop-color="#ffd342"/>
		</linearGradient>
		<linearGradient id="g3" x2="1" gradientUnits="userSpaceOnUse" gradientTransform="matrix(0,-782.793,619.746,0,391.455,1138.793)">
			<stop offset="0" stop-color="#99280d"/>
			<stop offset="1" stop-color="#c94120"/>
		</linearGradient>
		<linearGradient id="g4" x2="1" gradientUnits="userSpaceOnUse" gradientTransform="matrix(0,-737.907,625.621,0,2395.544,1093.907)">
			<stop offset="0" stop-color="#99280d"/>
			<stop offset="1" stop-color="#c94120"/>
		</linearGradient>
	</defs>
	<style>
		.s0 { fill: #f9e6a0 } 
		.s1 { fill: #ffffff } 
		.s2 { fill: #f9eec2 } 
		.s3 { fill: url(#g1) } 
		.s4 { fill: #613900 } 
		.s5 { fill: url(#g2) } 
		.s6 { fill: url(#g3) } 
		.s7 { fill: #523000 } 
		.s8 { fill: #e26700 } 
		.s9 { fill: url(#g4) } 
		.s10 { fill: #efcd3b } 
		.s11 { fill: #ededed } 
		.s12 { fill: #ff984b } 
		.s13 { fill: #666666 } 
		.s14 { fill: #ffb955 } 
		.s15 { fill: #d47e3e } 
		.s16 { fill: #a05f00 } 
		.s17 { fill: #613a1c } 
		.s18 { fill: #8c5429 } 
	</style>
	<g id="Layer">
		<g id="Layer">
			<g id="Layer">
				<path id="Layer" class="s0" d="m313 1485c-79-37.7-158.4-154.7-150.8-241.8 7.6-87.1 73.4-166.3 157.7-189.8 86.7-24.1 185.5 6.1 265.5-35.1 93.9-48.3 118.3-172.1 109.7-277.4-8.5-105.2-38.4-212.7-9.9-314.4 33.8-120.4 147.6-207.3 269.9-234.3 122.2-27 250.8-1.9 367.5 43.1 100.6 38.8 200.1 93.2 307.9 90.7 128.5-2.9 240-85.8 337.2-170 52.4-45.4 104.8-93.1 168.6-120.5 63.7-27.4 142.5-31 198.6 9.8 67.1 48.7 81.8 142.5 77.5 225.2-4.3 82.8-21.6 167.9 3.1 247 29.1 93.3 110.1 158.9 172.8 233.9 62.7 75 109.3 184.4 58.5 267.9-22.8 37.5-62.1 63.1-83 101.7-33.5 61.7-11.9 137-5.5 207 6.4 70-19.4 158.4-88.9 168.5l-2062.7 14.5c-42.4-16.5-52.6-6.4-93.7-26z"/>
				<g id="Layer" style="opacity: .3">
					<path id="Layer" class="s1" d="m1486.8 488.7c-63.5-8.8-128.2 23.3-191 10.4-120.1-24.8-170.4-197.3-292.4-209.7-63.5-6.5-120.6 34.4-175.5 66.9-44.8 26.5-92.2 48.4-141.3 65.5-0.5 1.6-1 3.2-1.4 4.8-23.2 82.8-7.7 169.6 3.5 255.8l993.7-2.9c-44.1-84-101.7-177.8-195.6-190.8z"/>
				</g>
				<path id="Layer" class="s2" d="m406.7 1511l2062.6-14.4c69.5-10.1 95.3-98.6 88.9-168.5-0.1-1-0.2-2-0.3-3.1-83.9-1.7-172.2-39.8-246.9-83.3-113.3-65.9-232.1-147.1-362.4-132.7-154.9 17.1-275.4 166.2-431.2 168.1-219.2 2.6-361.5-281.9-580.6-277.9-114.1 2.1-208.6 83.2-307.8 139.5-140.1 79.6-305.8 112.8-465.8 95-0.4 3.1-0.8 6.3-1.1 9.4-7.6 87.2 71.9 204.2 150.8 241.8 41.2 19.7 51.4 9.6 93.8 26.1z"/>
				<path id="Layer" class="s3" d="m653.2 1228c19.8-4.2 41.9-11.6 49.7-30.3 3.3-7.8 3.5-16.5 5.7-24.7 4.7-17 17.9-30.2 31.7-41.2 13.8-11 28.8-20.8 39.8-34.6 10.9-13.8 17.1-33.1 10-49.2-12.2-27.7-55.9-32.7-63.7-61.9-6.7-24.8 17.2-46.2 26.8-70 14.1-35.2-9.8-80.2-46.9-88.2-17.4-3.8-37-0.8-51.6-10.9-11.7-8.2-16.7-22.6-23.6-35-9.7-17.7-25.1-33.1-44.5-38.6-19.4-5.4-42.8 1.4-52.9 18.9-6.1 10.7-6.8 23.6-12.1 34.8-7.8 16.4-24.4 26.7-40.9 34.1-16.6 7.4-34.3 13-48.6 24.2-14.3 11.1-24.8 29.8-19.8 47.3 2.1 7.4 6.9 14.1 7.7 21.8 1.8 17.5-16.9 30.8-19.3 48.1-4.5 32.6 47.8 53.5 41.1 85.8-2.4 11.5-11.8 19.9-20.3 28-12.4 11.9-23.9 25.4-29.9 41.5-6 16.1-5.8 35.4 4.1 49.5 9.2 13.2 24.9 19.9 39.8 26 31.5 12.9 63.1 25.8 94.6 38.7 20.2 8.3 42.6 16.2 64.1 8.2 20.3-7.6 37.1-17.7 59-22.3z"/>
				<g id="Layer">
					<path id="Layer" class="s4" d="m621.1 1471h-75.5l13.6-477.3h48.4z"/>
					<path id="Layer" class="s4" d="m465.3 993.7l102.7 111.3v48.2l-107.9-147.9z"/>
					<path id="Layer" class="s4" d="m686.1 1061.7l-102.7 111.3v48.2l107.9-147.9z"/>
				</g>
				<path id="Layer" class="s5" d="m2326.9 1261.1c17.1-3.6 36.2-10 42.9-26.1 2.8-6.7 3-14.3 4.9-21.3 4-14.7 15.5-26.1 27.4-35.6 11.9-9.5 24.9-17.9 34.3-29.9 9.4-11.9 14.8-28.6 8.6-42.5-10.6-23.9-48.2-28.2-55-53.5-5.8-21.4 14.9-39.9 23.1-60.5 12.2-30.4-8.5-69.3-40.5-76.2-15-3.2-32-0.7-44.6-9.5-10.1-7-14.4-19.5-20.4-30.2-8.4-15.3-21.7-28.6-38.4-33.3-16.8-4.7-37 1.2-45.7 16.3-5.3 9.2-5.9 20.4-10.4 30-6.7 14.2-21 23.1-35.3 29.5-14.3 6.4-29.6 11.3-42 20.9-12.4 9.6-21.4 25.8-17.1 40.9 1.8 6.4 6 12.2 6.6 18.9 1.5 15.1-14.6 26.6-16.6 41.6-3.9 28.2 41.3 46.2 35.5 74.1-2 9.9-10.2 17.2-17.5 24.2-10.7 10.3-20.7 21.9-25.8 35.9-5.2 13.9-5 30.5 3.5 42.7 8 11.4 21.5 17.2 34.4 22.5 27.2 11.1 54.5 22.3 81.7 33.4 17.5 7.2 36.8 14 55.3 7.1 17.7-6.7 32.2-15.4 51.1-19.4z"/>
				<g id="Layer">
					<path id="Layer" class="s4" d="m2299.2 1471h-65.3l11.8-412.3h41.8z"/>
					<path id="Layer" class="s4" d="m2164.6 1058.7l88.7 96.2v41.6l-93.2-127.8z"/>
					<path id="Layer" class="s4" d="m2355.3 1117.5l-88.7 96.1v41.6l93.2-127.7z"/>
				</g>
				<path id="Layer" class="s6" d="m487.6 1099.6c30.2-6.4 64-17.8 75.9-46.2 5-11.9 5.3-25.3 8.7-37.7 7.2-25.9 27.3-46.2 48.4-62.9 21.1-16.8 44.1-31.7 60.8-52.8 16.7-21.1 26.1-50.7 15.3-75.3-18.7-42.3-85.4-50-97.4-94.7-10.2-37.9 26.3-70.6 40.9-107 21.6-53.8-15-122.6-71.6-134.9-26.6-5.7-56.6-1.2-78.9-16.7-17.8-12.5-25.6-34.5-36-53.5-14.9-27-38.3-50.7-68-59-29.7-8.3-65.5 2.1-80.9 28.8-9.4 16.3-10.5 36.1-18.5 53.1-11.9 25.1-37.2 40.9-62.6 52.2-25.3 11.3-52.4 19.9-74.3 37-21.9 17-37.9 45.6-30.3 72.3 3.3 11.4 10.5 21.6 11.7 33.4 2.7 26.7-25.8 47-29.5 73.6-6.9 49.9 73 81.8 62.9 131.2-3.6 17.6-18.1 30.4-31 42.9-19 18.2-36.6 38.8-45.7 63.5-9.2 24.6-8.8 54 6.3 75.6 14.1 20.2 38.1 30.4 60.8 39.8 48.2 19.7 96.4 39.5 144.6 59.2 30.9 12.7 65.1 24.8 97.9 12.6 31.4-12 57.1-27.5 90.5-34.5z"/>
				<g id="Layer">
					<path id="Layer" class="s7" d="m438.7 1471h-115.6l20.8-729.5h74z"/>
					<path id="Layer" class="s7" d="m200.5 741.5l157 170.1v73.6l-165-226z"/>
					<path id="Layer" class="s7" d="m537.9 845.4l-157 170.1v73.6l165-226z"/>
				</g>
				<path id="Layer" class="s8" d="m297.8 1459.7c-18.8-9.5-27.5-34.9-18.5-54 9-19.1 34.2-28.4 53.4-19.9 16.4 7.2 27.9 25 45.7 27.1 13.7 1.6 26.3-6.8 37.6-14.7 20-14.1 40.7-28.2 64.4-34.3 23.7-6.1 51.3-2.7 68.6 14.6 6.1 6.1 11 13.9 19 17.2 14.5 5.9 29.4-5.9 43.1-13.6 23.8-13.4 56.5-13.8 76.5 4.9 19.9 18.7 18.2 57.5-6.3 69.5-5 0-14.2 4.4-19.2 4.4z"/>
				<path id="Layer" class="s8" d="m2098.2 1459.1c-16.3-8.2-23.8-30.2-16-46.7 7.8-16.5 29.6-24.6 46.3-17.3 14.2 6.2 24.2 21.6 39.6 23.4 11.9 1.4 22.8-5.9 32.6-12.7 17.3-12.2 35.3-24.4 55.8-29.7 20.5-5.3 44.4-2.4 59.4 12.6 5.3 5.3 9.5 12 16.4 14.8 12.5 5.1 25.5-5.1 37.3-11.7 20.6-11.6 48.9-11.9 66.2 4.3 17.3 16.2 15.8 49.8-5.5 60.2-4.3 0-12.3 3.8-16.6 3.8z"/>
				<path id="Layer" class="s9" d="m2204.2 929.1c-32.3-57.2-112.2-86-120.8-151.1-4.7-35.6 14.8-69.5 33.5-100.2 44.4-72.6 88.8-145.3 133.2-217.9 16.9-27.7 34.5-56.1 60.4-75.6 43.8-32.9 105-34.6 157.2-17.8 52.2 16.8 97.4 49.6 141.7 81.9 33.9 24.7 69.8 52 83.1 91.9 23.4 70.1-32.4 145.7-18 218.2 5.7 28.7 22 54.2 29.4 82.6 18.3 70.1-22.8 145-81.4 187.5-65.5 47.4-157.2 77.6-237.4 60.5-40.4-8.6-92.7-12.1-124.8-40.5-35-30.9-34.3-81-56.1-119.5z"/>
				<g id="Layer">
					<path id="Layer" class="s7" d="m2465.1 1471h-108.8l19.5-687.5h69.7z"/>
					<path id="Layer" class="s7" d="m2240.7 783.5l147.9 160.3v69.4l-155.4-213z"/>
					<path id="Layer" class="s7" d="m2558.6 881.4l-147.9 160.3v69.4l155.4-213z"/>
				</g>
				<path id="Layer" class="s10" d="m2588 1507h-2376c-19.9 0-36-16.1-36-36 0-19.9 16.1-36 36-36h2376c19.9 0 36 16.1 36 36 0 19.9-16.1 36-36 36z"/>
				<path id="Layer" class="s1" d="m1898.9 602.5c-42 0-76-34-76-76 0-42 34-76 76-76 42 0 76 34 76 76 0 42-34 76-76 76z"/>
				<g id="Layer">
					<path id="Layer" class="s11" d="m1660.6 1077.5c5.2 3.9 10.4 7.8 15.5 11.6-19.4 15.7-33 33.9-52.4 49.5-3.1 2.5-6.4 5.3-7.7 9.1-1.8 5.3 0.9 11 3.1 16.2 8.7 20.5 11.4 43.5 7.6 65.4 8.3 2.6 18.9-0.3 26.6-4.3 7.7-4 14.3-9.9 20.7-15.8-6.1-15.4-11.3-31.1-17.4-46.5 47.8 6.9 88.5-40 91.7-60.1 12 2.4 24.2 3.1 36.5 2.1-34.5-23.1-80.6-27-124.2-27.2z"/>
					<path id="Layer" class="s11" d="m1836.7 1116.8c-5.2-1.1-25.2 23-30.2 21.1 23.4 46.1 63.6 82.6 110.2 106-6.9 38.6-0.7 80.3 18.4 114.5-1.8 6.2-4.4 14.2-6.3 20.4-0.3 1.2-0.7 2.4-0.5 3.6 0.5 3.7 5.2 4.9 9 4.9 19.1 0.2 38.2-8.5 50.7-23 1.4-1.6 2.8-3.4 3.2-5.5 0.8-4.3-2.4-8.2-5.8-10.9-3.4-2.7-7.4-5.1-9.2-9-11.6-6.4-16.8-20.2-18.6-33.4-1.9-13.1-0.2-26.5 0-39.8 0.2-13.3-1.4-27.2-9-38.1-10-14.5-29.6-22.4-34.5-39.4-3.2-10.8-3.2-21.6-2-32.5-30.2-0.2-45.8-33-75.4-38.9z"/>
					<path id="Layer" class="s1" d="m1737.5 981.9c-20-10-35.1-27.7-47.4-46.3-12.3-18.7-22.4-38.7-35.7-56.7-13.3-18-30.4-34.2-51.7-40.9-21.3-6.7-47.2-2.1-61.2 15.4-31.1-3.4-57.5-5.9-88.8-5.5-0.5 29.3 12.5 58.9 33.9 78.8 21.4 20 51.5 30.3 80.7 27.7 20.7 37 39.4 76.5 56.7 115.2-24.6 4.4-45.2 13.8-69.8 18.1-4 0.7-8.2 1.5-11.1 4.2-4.1 3.8-4.6 10.1-5.1 15.7-2.2 22.2-11 43.6-24.9 61 6.1 6.2 16.7 8.8 25.4 9.1 8.7 0.2 17.3-1.8 25.8-3.8 2.1-16.4 5.1-32.7 7.2-49.1 38.6 29.1 96.8 7.6 109.3-8.5 41.4 35.2 105.7 42.3 155.6 20.8 29.2 52.4 80.5 89.2 137.6 107.6-1 39.2 11.5 79.5 35.7 110.4-0.9 6.4-2.2 14.7-3.1 21.1-0.2 1.2-0.3 2.5 0 3.6 1.1 3.6 5.9 4 9.6 3.5 18.9-2.8 36.4-14.2 46.6-30.4 1.1-1.8 2.2-3.8 2.3-6 0.2-4.3-3.6-7.8-7.3-9.9-3.8-2.2-8.1-3.9-10.4-7.5-12.4-4.6-19.6-17.4-23.5-30.1-3.8-12.7-4.2-26.2-6.1-39.3-1.9-13.1-5.6-26.7-14.7-36.3-12.1-12.8-32.6-17.7-40.1-33.6-13.4-28.6-2.6-60.4-6.9-91.6-6.2-45.5-43-83.6-86.6-98.2-40.9-13.9-93.4 0.8-132-18.5z"/>
					<path id="Layer" class="s1" d="m1871.4 1060.8c34.5-19.5 62.9-49.5 80.6-84.9 17.7-35.4 24.4-76.2 19.2-115.5 20.2 3.9 36.2 19.7 42.3 39.3 6 19.7 0.3 42.5-14.2 57 4.5 1.6 7.3 5.8 8.4 10.4 1.1 4.6 0.3 9.5-1.1 14.1-3.7 12-12.2 22.4-23.2 28.4 10.4 14.3 5.5 34.2-6.8 46.8-12.3 12.7-29.9 18.6-47 23.2-10.4 2.8-21.3 5.3-31.9 3.2-10.6-2.1-24.9-11.3-26.3-22z"/>
					<path id="Layer" class="s12" d="m1617.9 844.8c-3.9 21.5-5.9 43.6-2.4 65.1 3.5 21.5 13 42.6 29.3 57.1 16.2 14.6 39.7 21.8 60.7 15.8 5.4-37-6.4-74.9-27.5-105.8-6.5-9.5-14.2-18.4-24-24.5-9.7-6.2-24.8-10.1-36.1-7.7z"/>
					<path id="Layer" class="s13" d="m1459.7 886.7c10.4-6.9 19.9-15.9 24.3-27.5 1.3-3.5 2.1-7 2.6-10.7-11-0.6-22.1-0.8-33.9-0.6-0.3 13.1 2.2 26.4 7 38.8z"/>
				</g>
				<g id="Layer">
					<path id="Layer" class="s14" d="m802.8 674.6c-2.9 5.6-2.7 12.3-1.7 18.5 1 6.2 2.7 12.4 2.6 18.7-0.3 10.6-6.2 20.9-15.3 26.4-0.3 2.2-0.2 4.4 0 6.6 1.2 10.6-12.9 15.3-18.2 6.1-0.1-0.1-0.1-0.2-0.2-0.3-6.5-11.6-8-25.4-6.8-38.6 1.2-13.2 5.1-26 8.9-38.7 9.8-2 20.8-0.1 30.7 1.3z"/>
					<path id="Layer" class="s15" d="m927.9 366.2c-72.9 91.3-127 197.6-157.4 310.4 9.5 3.6 20.3 7.6 29.9 11.2 48.4-107.8 115.6-213.2 195.2-300.5 0-0.3 0-0.5-0.1-0.8-3.1-34.1-46.3-47.1-67.6-20.3z"/>
					<path id="Layer" class="s16" d="m1083.4 251.4c19.2 12.9 42.9 18.9 66 16.6 23-2.3 45.2-12.7 61.5-29.1 26.1-26.2-3.9-75.6-35-95.7-31.1-20.1-72.6-19.6-106.5-4.8-16 7-31.6 17.1-49.1 16.8-19.9-0.3-40.3-14.3-58.4-6.1-13.6 6.2-19.6 23.2-17.5 38 2 14.8 10.2 28 18.2 40.6 4.9 7.7 3.6 19.4 0.1 27.8-3.5 8.4-9.1 15.7-13.4 23.7-11.7 21.7-13.7 48.3-5.4 71.5 4.1 11.5 11.7 22.9 23.4 26.3 36.5-21 47.2-72.6 82-96.2 7.5-5.1 15.9-8.6 23.1-14.1 7.1-5.4 11.6-6.3 11-15.3z"/>
					<path id="Layer" class="s14" d="m1008.8 282.7c-4.2 26.6-11.4 52.8-21.5 77.8 15.8 6.5 34.7 10.5 51.7 11.9-5-19-4.9-39.2 1.1-57.9-11.4-10.3-19.1-22.4-31.3-31.8z"/>
					<path id="Layer" class="s14" d="m1110.2 208.1c4.6 49.5-13.4 100.7-48.1 136.4-32-13.7-63.6-42.7-67.7-77.2-3.2-27.1 11.8-55.4 36-68 24.2-12.6 59.4-9.4 79.8 8.8z"/>
					<g id="Layer">
						<path id="Layer" class="s17" d="m993.5 1375l-6.2 24.5-12.8 35.5h121.5l-63-35.5z"/>
						<path id="Layer" class="s17" d="m861.5 1375l-6.2 24.5-12.8 35.5h121.5l-63-35.5z"/>
						<path id="Layer" class="s12" d="m855 708.5h204c0 0-16-160.2 28-234.8 44-74.6 73.4-129.4-92.8-129.2-166.3 0.2-139.2 321.1-139.2 364z"/>
						<path id="Layer" class="s17" d="m905 708.5l-50 691h50l82.3-506z"/>
						<path id="Layer" class="s18" d="m855 708.5l132.3 691h45.7l26-691z"/>
					</g>
					<path id="Layer" class="s14" d="m1366.4 737.8c3 6.8 9.3 11.5 15.8 15.2 6.5 3.7 13.4 6.6 19.1 11.4 9.5 8.1 14.6 21.1 13 33.5 1.8 1.8 3.9 3.5 6.1 4.9 10.6 6.7 4.5 23.2-7.8 21.2-0.2 0-0.3 0-0.5-0.1-15.4-2.6-29.3-11.3-40.5-22.2-11.2-10.9-20.2-23.8-29-36.7 5.4-10.5 15.3-19.2 23.8-27.2z"/>
					<path id="Layer" class="s12" d="m1022.3 371.2c72.9 157.4 184.7 296.5 322.8 401.5 8.7-9.3 18.4-20.1 27.1-29.4-102.2-107.1-192.9-235-256.7-368.6-30.3-9.5-62.3-11-93.2-3.5z"/>
					<path id="Layer" class="s16" d="m1150.2 250.9c-13.9 4.5-28 9.1-42.5 10.6-14.5 1.5-29.9-0.3-42.5-7.7-8.9 9-15.7 18.3-22.2 29.1 1-7.7 0.3-15.6-2-23-2.2-7-12.7-13-19.1-9.5-6.4 3.5-9.4 11.5-8.7 18.8 0.7 7.3 4.4 13.9 8.4 20-9.7 8.6-19 17.1-28.7 25.7 0.1-21.8-5.9-43-7.6-64.7-1.7-21.7 2.8-46 19.9-59.4 13.6-10.6 32-12.1 48.8-15.9 25.5-5.9 52.8-18 76.4-6.6 13.8 6.6 23.2 20.7 26.4 35.6 3.2 14.9-1.5 32.7-6.6 47z"/>
				</g>
			</g>
		</g>
	</g>
</svg>